<svg xmlns="http://www.w3.org/2000/svg" viewBox="0 0 480 96" role="img" aria-label="Baltic Car Rent">
  <title>Baltic Car Rent</title>
  <!-- Dark pill background -->
  <rect width="480" height="96" rx="14" fill="#1f2937"/>
  <!-- Green icon tile -->
  <rect x="12" y="12" width="72" height="72" rx="12" fill="#4ade80"/>
  <!-- Stylized car silhouette inside the green tile.
       24x24 lucide-style path scaled to ~52px and centered at (48, 48). -->
  <g transform="translate(48 48) scale(1.6) translate(-12 -12)" fill="none" stroke="#0f1722" stroke-width="2.3" stroke-linecap="round" stroke-linejoin="round">
    <path d="M19 17h2c.6 0 1-.4 1-1v-3c0-.9-.7-1.7-1.5-1.9C18.7 10.6 16 10 16 10s-1.3-1.4-2.2-2.3c-.5-.4-1.1-.7-1.8-.7H5c-.6 0-1.1.4-1.4.9l-1.4 2.9A3.7 3.7 0 0 0 2 12v4c0 .6.4 1 1 1h2"/>
    <path d="M9 17h6"/>
    <circle cx="7" cy="17" r="2"/>
    <circle cx="17" cy="17" r="2"/>
  </g>
  <!-- Wordmark -->
  <text
    x="106"
    y="61"
    fill="#ffffff"
    font-family="Geist, ui-sans-serif, system-ui, -apple-system, 'Segoe UI', Roboto, 'Helvetica Neue', Arial, sans-serif"
    font-size="32"
    font-weight="700"
    letter-spacing="-0.6"
  >Baltic Car Rent</text>
</svg>
